<?xml version="1.0" encoding="utf-8"?>
<!-- Generator: Adobe Illustrator 27.0.0, SVG Export Plug-In . SVG Version: 6.00 Build 0)  -->
<svg version="1.1" id="Layer_1" xmlns="http://www.w3.org/2000/svg" xmlns:xlink="http://www.w3.org/1999/xlink" x="0px" y="0px"
	 viewBox="0 0 434 353" style="enable-background:new 0 0 434 353;" xml:space="preserve">
<style type="text/css">
	.st0{fill:#4F51B6;}
</style>
<path class="st0" d="M310.6,43.9c3.7,0,6.9,2.4,7.8,6c14.9,62.5,44.3,186,59,247.1l1.6,7.4c0.3,1.6-0.9,3.1-2.5,3.1
	c-14,0-30.4-0.1-43.5,0.1c-3,0-4.1-0.9-4.8-3.8L262.1,46.2c-0.3-1.1,0.5-2.2,1.7-2.2L310.6,43.9z"/>
<g>
	<g>
		<path class="st0" d="M288.3,171.1c-15.2,0-34.1,0.4-48.8,0.3c-3.2,0-4.3,1-5.1,4.1c-4.6,19.2-7.7,31.9-10.3,42.1
			C209.6,158.2,192.9,89.6,183,48c-0.7-3.1-1.9-4.1-5.1-4.1c-4.5,0-9,0.1-13.5,0.1c-4.6,0-9.2,0-13.9,0c-4.6,0-9.2,0-13.9,0
			c-4.5,0-9,0-13.5-0.1c-3.2,0-4.3,1-5.1,4.1c-14.7,61.8-44.6,183.5-59.4,245.3l-2.9,11.7c-0.3,1.3,0.7,2.5,2,2.5
			c14.3,0,32-0.1,45.3,0.1c3,0,4.1-0.9,4.8-3.8c10.7-41.6,27.4-107,42.5-166.1c15.1,59.2,31.8,124.6,42.5,166.1
			c0.7,2.9,1.8,3.9,4.8,3.8c3.1,0,6.2-0.1,9.4-0.1c5.5,0,11,0,16.4,0c5.4,0,10.9,0,16.4,0c3.1,0,6.2,0,9.4,0.1c3,0,4-0.9,4.8-3.8
			l35.9-130.3C290.5,172.3,289.6,171.1,288.3,171.1z"/>
	</g>
</g>
</svg>
